<?xml version="1.0" standalone="no"?>
<!DOCTYPE svg PUBLIC "-//W3C//DTD SVG 20010904//EN"
 "http://www.w3.org/TR/2001/REC-SVG-20010904/DTD/svg10.dtd">
<svg version="1.0" xmlns="http://www.w3.org/2000/svg"
 width="500.000000pt" height="500.000000pt" viewBox="0 0 500.000000 500.000000"
 preserveAspectRatio="xMidYMid meet">
<metadata>
Created by potrace 1.14, written by Peter Selinger 2001-2017
</metadata>
<g transform="translate(0.000000,500.000000) scale(0.100000,-0.100000)"
fill="#000000" stroke="none">
<path d="M1477 3931 c-80 -120 -84 -226 -16 -363 l29 -57 -103 35 c-222 78
-575 225 -870 363 l-109 51 7 -33 c15 -66 66 -193 106 -260 47 -78 161 -204
229 -251 25 -17 77 -48 115 -69 67 -36 68 -37 30 -31 -60 9 -142 30 -224 59
-41 14 -76 23 -79 20 -9 -9 115 -183 183 -253 87 -92 174 -155 268 -194 40
-17 74 -33 77 -35 7 -7 -125 6 -179 18 -24 5 -45 8 -48 6 -9 -10 114 -140 180
-191 122 -93 240 -135 382 -137 80 -1 80 -1 46 -16 -19 -8 -71 -18 -115 -21
l-81 -7 80 -62 c145 -114 270 -159 410 -150 l80 5 -29 -23 c-15 -12 -47 -28
-69 -35 l-42 -12 23 -19 c34 -27 130 -61 189 -67 l53 -4 -113 -120 c-61 -66
-139 -140 -172 -163 -111 -80 -234 -104 -342 -66 -47 16 -51 16 -43 1 12 -22
86 -83 128 -104 18 -9 56 -20 83 -23 l50 -6 -28 -29 c-15 -16 -54 -42 -87 -58
-48 -24 -72 -30 -126 -30 -37 0 -87 7 -111 15 l-44 16 55 -56 c70 -72 139
-104 237 -113 l76 -7 -44 -46 c-120 -123 -318 -144 -479 -51 -37 21 -42 22
-30 6 94 -123 170 -181 282 -215 140 -43 332 -8 525 96 l82 45 -22 -38 c-34
-58 -137 -155 -197 -184 -73 -36 -161 -58 -233 -58 -32 0 -56 -4 -53 -8 3 -5
40 -20 83 -33 115 -35 276 -33 388 5 109 37 176 79 251 158 93 99 170 277 175
405 1 24 2 22 11 -12 15 -62 4 -221 -21 -289 -11 -33 -19 -61 -17 -63 2 -2 34
29 72 69 76 80 124 163 145 248 16 64 17 219 2 271 l-11 36 104 46 c273 120
467 281 558 464 60 121 86 289 86 571 0 318 64 450 282 586 149 92 441 211
749 304 140 43 160 51 135 58 -41 10 -317 -11 -466 -37 -170 -28 -360 -78
-514 -134 l-129 -46 -66 16 c-245 60 -448 24 -574 -102 -63 -63 -122 -181
-138 -276 l-12 -74 -86 60 c-47 33 -174 119 -281 190 -338 225 -491 357 -571
490 -18 31 -37 57 -40 57 -3 0 -18 -17 -32 -39z m2438 -206 c-44 -12 -125 -35
-180 -50 -55 -16 -125 -40 -155 -55 -46 -23 -141 -55 -225 -76 -11 -3 9 12 45
32 36 21 72 39 80 41 8 1 67 20 130 42 117 40 315 90 360 90 14 0 -11 -11 -55
-24z m-2148 -173 c65 -45 134 -95 153 -112 l35 -31 -43 21 c-24 12 -45 20 -47
18 -2 -2 25 -28 61 -58 36 -30 77 -65 92 -78 l27 -24 -42 21 c-23 12 -64 30
-91 40 -71 28 -212 115 -248 153 -36 38 -75 96 -56 85 6 -5 12 -4 12 2 0 5 -5
13 -10 16 -15 9 -36 55 -45 95 l-8 35 46 -51 c26 -28 99 -88 164 -132z m-980
132 c273 -63 1018 -362 1498 -601 236 -118 379 -222 445 -325 45 -69 69 -130
52 -136 -6 -2 -9 -9 -7 -15 18 -62 15 -63 -35 -16 -27 26 -63 52 -80 59 -16 7
-30 16 -30 19 0 10 -330 99 -394 107 -33 4 -221 93 -213 100 3 3 16 -2 30 -10
44 -29 188 -76 336 -111 171 -39 238 -63 303 -112 26 -19 48 -29 48 -22 0 16
-45 93 -87 148 -18 24 -33 50 -33 56 0 14 -158 122 -255 176 -136 74 -449 229
-463 229 -8 0 -35 -12 -59 -26 l-45 -26 -156 60 c-126 49 -416 142 -440 142
-3 0 5 -11 18 -25 l23 -25 -54 16 c-30 9 -62 21 -73 26 -13 7 -21 6 -26 -3
-11 -16 -134 58 -268 161 l-97 75 53 3 c28 2 52 7 52 13 0 5 -3 9 -7 9 -10 1
-120 69 -111 70 4 0 37 -7 75 -16z m2323 -140 c36 -9 101 -22 145 -28 77 -12
79 -13 55 -27 -17 -9 -70 -16 -160 -20 -143 -6 -128 -1 -284 -77 -5 -3 -5 2
-1 9 5 8 -4 3 -19 -11 -16 -14 -41 -47 -57 -75 -16 -27 -29 -43 -29 -35 0 26
-21 -6 -42 -62 l-19 -53 5 54 c3 29 19 83 36 120 l30 66 -30 -34 c-58 -67 -75
-117 -74 -216 0 -57 7 -106 17 -135 9 -24 14 -46 12 -48 -2 -2 -18 17 -34 43
-85 134 -55 327 69 439 110 98 230 126 380 90z m148 -161 c-108 -112 -170
-248 -204 -448 l-7 -40 -23 50 c-27 59 -30 42 -8 -40 23 -83 32 -145 23 -150
-4 -3 -10 8 -14 25 -4 16 -11 33 -17 36 -6 4 -8 -1 -5 -12 9 -31 27 -136 30
-179 l3 -40 22 46 c38 80 52 156 53 294 l2 130 9 -130 c14 -208 6 -333 -31
-445 -36 -113 -107 -227 -137 -222 -41 8 -45 21 -19 73 58 114 67 240 25 351
-18 50 -59 116 -47 77 3 -8 8 -47 11 -85 l6 -69 -19 60 c-32 103 -41 118 -34
55 3 -30 3 -52 -1 -49 -3 3 -24 57 -47 120 -50 139 -60 228 -35 313 16 53 70
156 83 156 3 0 3 -18 -1 -40 l-6 -40 36 25 c20 14 46 25 58 25 38 1 100 36
166 94 59 52 141 104 165 106 5 0 -12 -21 -37 -47z m-210 -22 c7 -48 -53 -70
-81 -30 -19 26 -11 58 17 69 27 10 60 -10 64 -39z m-1858 -151 c89 -19 184
-49 242 -75 52 -25 52 -26 16 -21 -21 3 -38 3 -38 2 0 -2 28 -13 63 -26 76
-27 169 -79 162 -90 -3 -4 -22 -4 -42 1 -54 12 -62 11 -33 -7 19 -11 20 -14 5
-10 -136 32 -318 59 -310 46 8 -14 -61 13 -136 51 -47 24 -59 34 -44 37 49 9
49 14 0 40 -27 14 -77 36 -110 49 l-60 24 115 -5 c63 -3 140 -10 170 -16z
m503 -340 c19 -7 16 -9 -18 -11 -31 -1 -24 -4 29 -10 71 -8 170 -29 164 -34
-2 -2 -46 3 -98 11 -52 7 -118 14 -147 14 l-52 0 -7 -49 -6 -50 -77 5 c-42 3
-80 9 -85 14 -6 6 -19 10 -30 10 -16 1 -14 5 13 19 19 10 30 20 25 23 -8 5
-88 18 -136 23 -60 6 15 29 147 46 70 9 246 2 278 -11z m63 -1058 l-29 -27 23
32 c13 18 26 30 29 28 3 -3 -8 -18 -23 -33z m60 -237 c-9 -7 -16 -18 -16 -26
0 -30 -81 -139 -102 -139 -5 0 -6 5 -3 10 12 19 -6 10 -55 -29 -28 -22 -59
-43 -71 -46 -15 -5 -17 -10 -9 -20 20 -24 -117 -75 -200 -75 l-45 1 50 17 c83
29 142 69 189 131 32 41 61 66 98 84 29 15 80 48 113 75 33 27 62 45 64 39 2
-6 -4 -16 -13 -22z m39 -145 c-3 -5 -24 -23 -47 -42 -43 -34 -43 -27 1 29 13
17 30 29 38 26 7 -3 11 -9 8 -13z m325 -1 c0 -5 -7 -12 -15 -15 -8 -3 -31 -39
-50 -80 -20 -41 -41 -74 -47 -74 -7 0 -27 -14 -45 -32 -18 -18 -33 -27 -33
-21 0 6 7 16 16 24 15 12 54 81 54 95 0 4 -11 -3 -24 -15 -36 -34 -41 -10 -10
51 14 29 30 58 35 64 11 13 119 17 119 3z m-270 -298 c24 -7 24 -8 -18 -30
-23 -12 -54 -26 -68 -31 -24 -10 -24 -8 8 30 34 41 37 43 78 31z"/>
<path d="M2672 1760 c-63 -29 -86 -85 -80 -197 5 -92 20 -123 76 -156 44 -26
150 -26 193 -1 39 23 68 61 71 94 3 23 0 25 -47 28 -46 2 -51 0 -67 -28 -14
-24 -24 -30 -52 -30 -49 0 -66 28 -66 107 0 34 4 73 9 86 18 47 92 44 117 -4
13 -25 20 -29 60 -29 55 0 63 15 37 67 -36 75 -157 106 -251 63z"/>
<path d="M2997 1774 c-9 -9 -9 -346 -1 -368 4 -12 20 -16 55 -16 l49 0 -2 193
-3 192 -45 3 c-25 2 -49 0 -53 -4z"/>
<path d="M3177 1773 c-9 -8 -9 -346 -1 -367 4 -12 20 -16 55 -16 l49 0 0 64 0
63 63 5 c81 7 124 29 143 75 32 75 -8 149 -91 172 -44 12 -208 15 -218 4z
m204 -95 c15 -23 10 -57 -10 -68 -11 -5 -36 -10 -55 -10 -36 0 -36 0 -36 43 0
24 3 47 8 51 11 12 84 -1 93 -16z"/>
<path d="M3563 1774 c-10 -4 -13 -53 -13 -195 l0 -189 50 0 50 0 0 75 0 75 65
0 64 0 3 -72 3 -73 50 0 50 0 3 184 c3 198 2 201 -50 201 -53 0 -58 -7 -58
-81 l0 -69 -65 0 -64 0 -3 73 -3 72 -35 2 c-19 1 -41 0 -47 -3z"/>
<path d="M3973 1773 c-10 -3 -13 -52 -13 -194 l0 -189 145 0 145 0 0 40 0 40
-95 0 -95 0 0 35 0 35 79 0 c85 0 105 10 99 52 -3 22 -8 23 -90 26 l-88 3 0
34 0 34 93 3 92 3 3 34 c2 20 -2 37 -10 42 -14 9 -244 11 -265 2z"/>
<path d="M4323 1769 c-15 -15 -18 -345 -4 -367 5 -9 24 -12 52 -10 l44 3 3 63
c3 60 4 62 30 62 24 0 32 -9 60 -65 l32 -65 50 0 c29 0 50 4 50 11 0 6 -16 39
-35 74 l-36 63 31 30 c25 26 30 38 30 79 0 92 -44 122 -193 130 -77 4 -105 2
-114 -8z m185 -85 c46 -32 21 -74 -45 -74 l-43 0 0 45 c0 44 1 45 33 45 18 0
43 -7 55 -16z"/>
</g>
</svg>
